<?xml version="1.0" encoding="UTF-8"?>
<svg id="Layer_2" data-name="Layer 2" xmlns="http://www.w3.org/2000/svg" viewBox="0 0 240.47 202.25">
  <defs>
    <style>
      .cls-1 {
        fill: #69b4df;
      }
    </style>
  </defs>
  <g id="Layer_1-2" data-name="Layer 1">
    <g>
      <path class="cls-1" d="M0,202.25c1.82-10.38,11.32-17.58,21.42-19.2l114.29-.15c25.44-5.49,31.2-32.66,11.6-49.7-21.2-18.43-48.25-33.37-69.47-51.99C44.93,52.33,66.34-1.01,109.71.01l130.77.03c-1.29,10.21-10.34,16.74-19.76,19.2l-114.84.14c-28.8,6.01-32.37,33.54-10.19,51.6,18.65,15.18,39.73,28.52,58.67,43.44,16.5,12.99,27.31,27.27,23.51,49.84-3.14,18.65-21.97,37.98-41.6,37.98H0Z"/>
      <path class="cls-1" d="M203.44,32.64c-1.48,6.62-6.26,12.52-12.15,15.76-1.52.83-6.61,3.03-8.03,3.03h-59.98l51.42,41.7c16.01,15.24,23.97,43.02,16.63,64.18-.29.85.5,1.58-1.16,1.3v-9.67c0-14.46-14.63-32.29-25.17-41.15-20.2-16.97-44.84-31.84-64.34-48.96-6.16-5.41-8.65-13.43-3.6-20.64,1.06-1.52,6.09-5.56,7.7-5.56h98.68Z"/>
      <path class="cls-1" d="M116.64,150.87c-.17-.68-.89-1.19-1.4-1.64-15.14-13.49-33.51-25.25-48.36-38.96-16.38-15.11-22.93-36.49-19.2-58.43.41-2.41.93-6.56,2.62-8.15-.99,18.43,7.38,35.46,20.9,47.48,20.63,18.35,46.43,33.41,67.27,51.42,4.81,4.16,8.42,8.77,7.34,15.6-.8,5.02-5.5,10.64-10.68,11.42-4.13.62-10.12-.02-14.32,0-27.92.22-55.86-.11-83.77.02,1.09-6.6,6.05-12.35,11.79-15.56,1.28-.71,6.81-3.22,7.83-3.22h59.98Z"/>
    </g>
  </g>
</svg>